<svg xmlns="http://www.w3.org/2000/svg" width="13.780" height="13.065" viewBox="0 0 13.780 13.065" fill="none" xmlns:c2pa="http://c2pa.org/manifest">
  <path d="M 6.892 2.646 L 6.892 9.167 L 9.579 10.75 L 8.871 7.75 L 11.183 5.771 L 8.121 5.5 L 6.892 2.646 Z M 6.892 10.917 L 3.475 12.958 C 3.322 13.042 3.173 13.076 3.027 13.063 C 2.881 13.049 2.753 13 2.642 12.917 C 2.531 12.833 2.447 12.719 2.392 12.573 C 2.336 12.427 2.329 12.278 2.371 12.125 L 3.267 8.313 L 0.246 5.75 C 0.121 5.639 0.044 5.51 0.017 5.365 C -0.011 5.219 -0.004 5.076 0.038 4.938 C 0.079 4.799 0.156 4.684 0.267 4.594 C 0.378 4.503 0.517 4.451 0.683 4.438 L 4.642 4.083 L 6.204 0.458 C 6.274 0.306 6.371 0.191 6.496 0.115 C 6.621 0.038 6.753 0 6.892 0 C 7.031 0 7.162 0.038 7.287 0.115 C 7.412 0.191 7.51 0.306 7.579 0.458 L 9.142 4.104 L 13.1 4.438 C 13.267 4.451 13.406 4.507 13.517 4.604 C 13.628 4.701 13.704 4.819 13.746 4.958 C 13.788 5.097 13.791 5.236 13.756 5.375 C 13.722 5.514 13.642 5.639 13.517 5.75 L 10.517 8.313 L 11.413 12.125 C 11.454 12.278 11.447 12.427 11.392 12.573 C 11.336 12.719 11.253 12.833 11.142 12.917 C 11.031 13 10.902 13.049 10.756 13.063 C 10.61 13.076 10.461 13.042 10.308 12.958 L 6.892 10.917 Z" fill="currentColor" fill-rule="nonzero"></path>
</svg>